<svg xmlns="http://www.w3.org/2000/svg" width="64.498" height="17.119" viewBox="0 0 64.498 17.119">
  <g id="Group_121" data-name="Group 121" transform="translate(-927 -532)">
    <path id="Path_153" data-name="Path 153" d="M930.893,537.039H928.7v-2.258h2.094c.879,0,1.505.179,1.505,1.112,0,.885-.529,1.146-1.407,1.146ZM927,542.175h1.7v-3.632h1.964c.036.157,1.2,2.4,1.352,2.7a8.175,8.175,0,0,1,.447.927h1.93c-.037-.159-.595-1.146-.742-1.417-.093-.173-.156-.3-.25-.47l-1-1.875a1.829,1.829,0,0,0,1.091-.677,2.95,2.95,0,0,0,.545-1.941,2.482,2.482,0,0,0-.915-2.16,4.581,4.581,0,0,0-2.586-.49H927v9.03Zm13.5-6.8a2.533,2.533,0,0,1,.566,1.66h-4.646a3.367,3.367,0,0,1,.4-1.27,2.512,2.512,0,0,1,.231-.326,2.432,2.432,0,0,1,3.451-.064Zm-5.978,1.954a4.869,4.869,0,0,0,.8,3.128,3.951,3.951,0,0,0,1.84,1.465,5.427,5.427,0,0,0,5.123-.693c.139-.094.213-.174.353-.268-.044-.167-.745-1.192-.785-1.342-.209.018-.332.4-1.14.726a3.7,3.7,0,0,1-3.341-.236,1.926,1.926,0,0,1-.95-1.373v-.2h6.282c.128,0,.125-.271.13-.49a5.965,5.965,0,0,0-.249-2.6,3.572,3.572,0,0,0-.313-.668,3.088,3.088,0,0,0-.194-.3,3.793,3.793,0,0,0-3.072-1.444,4.1,4.1,0,0,0-3.08.977,3.022,3.022,0,0,0-.5.551c-.079.107-.141.2-.213.31a4.511,4.511,0,0,0-.343.7,5.332,5.332,0,0,0-.35,1.744Zm9.292-4.09v7.525a1.5,1.5,0,0,0,1.374,1.407h4.417c.137,0,.433-.64.5-.746.082-.136.147-.263.224-.4a2.334,2.334,0,0,0,.228-.427h-5.039v-7.46h-1.6c-.075,0-.1.023-.1.1Zm7.623,8.932h1.8v-9h-1.8v9Zm2.29,0h1.865c.04-.171.407-.811.51-1.06.152-.369.338-.7.516-1.055.093-.185.163-.359.25-.535l.262-.523c.178-.356.346-.726.524-1.08l1.8-3.7c.432-.864.343-.643,1.189,1.036.093.184.163.359.251.534l1.559,3.185c.094.187.157.347.251.534l.262.524c.179.359.338.709.512,1.058l.524,1.079h1.865c-.118-.222-.221-.441-.338-.676l-.666-1.363-.164-.327-2.661-5.453c-.058-.117-.1-.242-.163-.36a7.292,7.292,0,0,0-.727-1.3,1.674,1.674,0,0,0-2.7-.026,5.829,5.829,0,0,0-.723,1.3c-.2.466-.478.889-.669,1.36-.239.589-1.109,2.174-1.332,2.724-.191.473-.473.893-.664,1.365-.183.454-.476.893-.668,1.36-.137.331-.628,1.222-.669,1.393Zm35.442-6.748a2.749,2.749,0,0,1,.548,1.612h-4.679a3.225,3.225,0,0,1,.65-1.609,2.417,2.417,0,0,1,3.481,0Zm-6.028,2.2a4.63,4.63,0,0,0,1.251,3.361,4.064,4.064,0,0,0,.6.513,4.019,4.019,0,0,0,.745.4,5.561,5.561,0,0,0,4.8-.417,8.474,8.474,0,0,0,.722-.521,3.755,3.755,0,0,0-.391-.689,3.9,3.9,0,0,0-.427-.653,2.89,2.89,0,0,0-.254.205,2.672,2.672,0,0,1-.872.534,3.685,3.685,0,0,1-3.394-.308,1.816,1.816,0,0,1-.879-1.511h6.38a4.589,4.589,0,0,1,.052-.537,8.643,8.643,0,0,0-.037-1.636,3.66,3.66,0,0,0-3.843-3.323,4.33,4.33,0,0,0-2.5.579,4.053,4.053,0,0,0-1.654,2.14,6.038,6.038,0,0,0-.3,1.862Zm-7.493-.2a5.388,5.388,0,0,0,.837,3.548,3.013,3.013,0,0,0,2.468,1.2h3.893V540.6h-3.337a1.717,1.717,0,0,1-1.65-.706c-.5-.757-.7-4.106.543-4.916a1.94,1.94,0,0,1,1.042-.267h3.4v-1.571h-3.206a3.664,3.664,0,0,0-3.033,1.089,5.111,5.111,0,0,0-.959,3.2Zm-9.128-3.73v8.474h1.734v-6.314a1.985,1.985,0,0,1,.332.388c.647.869,1.606,2.035,2.3,2.93l2.309,2.894a.9.9,0,0,0,1.5-.552v-8.278c0-.075-.023-.1-.1-.1h-1.57c-.16,0-.1.333-.1.654v5.334l-.368-.451c-.132-.162-.25-.306-.375-.475-.5-.677-1.3-1.631-1.856-2.332l-1.855-2.333c-.3-.383-.51-.632-1.04-.62a.9.9,0,0,0-.919.779Z" fill="#004a9c" fill-rule="evenodd"/>
    <path id="Path_154" data-name="Path 154" d="M957.068,542.175H962.5c-.065-.277-2.4-4.994-2.606-5.507-.043-.1-.036-.124-.143-.153-.034.151-1.282,2.73-1.33,2.825l-1.189,2.475c-.059.119-.1.242-.163.36Z" fill="#e50019" fill-rule="evenodd"/>
    <path id="Path_155" data-name="Path 155" d="M960.5,546.952c0-1.5,1.67-1.64,1.7-.229l-1.266.173a2.672,2.672,0,0,1-.435.056Zm-.687.2c0,1.039.564,1.964,1.636,1.964a2.736,2.736,0,0,0,1.374-.262c-.086-.18-.136-.412-.229-.589a1.576,1.576,0,0,1-1.759-.073,1.249,1.249,0,0,1-.3-.713c.226,0,.9-.124,1.179-.161l1.176-.166a2.762,2.762,0,0,0-.11-1.066,1.385,1.385,0,0,0-.631-.744,1.6,1.6,0,0,0-.862-.153c-.934,0-1.472.989-1.472,1.963Z" fill="#e50019" fill-rule="evenodd"/>
    <path id="Path_156" data-name="Path 156" d="M933.871,546.952a1.406,1.406,0,0,1,.214-.832.74.74,0,0,1,.594-.357c.822-.113.83.689.893.96l-1.267.173a2.659,2.659,0,0,1-.434.056Zm-.687.131a1.938,1.938,0,0,0,.9,1.849,2.642,2.642,0,0,0,2.111-.082c-.095-.179-.141-.4-.229-.589-.737.39-1.964.39-2.061-.786a3.594,3.594,0,0,0,.579-.074l1.776-.253a2.021,2.021,0,0,0-.384-1.514,1.331,1.331,0,0,0-1.219-.449,1.442,1.442,0,0,0-1.08.589,2.215,2.215,0,0,0-.392,1.309Z" fill="#e50019" fill-rule="evenodd"/>
    <path id="Path_157" data-name="Path 157" d="M951.342,547.934c0-.7.873-.786,1.44-.786v1.309a1.5,1.5,0,0,1-1.169-.042.567.567,0,0,1-.271-.481Zm-.491-2.487c.088.165.118.36.2.524.255-.06,1.139-.427,1.557-.052.2.178.178.444.178.706-.982,0-2.127.289-2.127,1.243a1.123,1.123,0,0,0,.119.6c.515,1.05,2.7.573,2.7.315v-2.453a1.1,1.1,0,0,0-1.178-1.146,3.011,3.011,0,0,0-1.44.262Z" fill="#e50019" fill-rule="evenodd"/>
    <path id="Path_158" data-name="Path 158" d="M939.433,545.512v3.534h.753v-3.141c.611-.142,1.373-.252,1.373.687v2.454h.72V546.3A1.18,1.18,0,0,0,941,545.185a3.658,3.658,0,0,0-1.337.168c-.194.066-.233.071-.233.159Z" fill="#e50019" fill-rule="evenodd"/>
    <path id="Path_159" data-name="Path 159" d="M954.025,545.512v3.534h.72v-3.141c.109-.009.2-.043.3-.061.5-.09,1.076,0,1.076.585v2.617h.752v-2.617a1.2,1.2,0,0,0-1.308-1.244c-.253,0-1.538.036-1.538.327Z" fill="#e50019" fill-rule="evenodd"/>
    <path id="Path_160" data-name="Path 160" d="M945.518,547.9a1.179,1.179,0,0,0,1.309,1.211c.323,0,1.472-.051,1.472-.328v-3.533h-.719v3.042c0,.2-.566.164-.753.164-.418,0-.589-.327-.589-.753v-2.453h-.72v2.65Z" fill="#e50019" fill-rule="evenodd"/>
    <path id="Path_161" data-name="Path 161" d="M931.679,544.629v.622h-.491v.589h.491v3.206h.719V545.84h.72v-.589h-.72c0-.583-.121-1.113.786-1.113v-.621a1.5,1.5,0,0,0-1.138.3,1.118,1.118,0,0,0-.367.81Z" fill="#e50019" fill-rule="evenodd"/>
    <path id="Path_162" data-name="Path 162" d="M942.705,546.232a1.061,1.061,0,0,0,.653.982c.576.3.983.231.983.85,0,.448-.634.49-1.069.349l-.4-.152a2.434,2.434,0,0,0-.229.622,2.709,2.709,0,0,0,1.243.229,1.126,1.126,0,0,0,1.146-1.572.805.805,0,0,0-.237-.319,2.183,2.183,0,0,0-.722-.39c-.263-.1-.526-.193-.586-.5-.076-.39.223-.56.628-.56.349,0,.466.178.687.2a3.469,3.469,0,0,0,.2-.557,2.313,2.313,0,0,0-1.145-.229,1.189,1.189,0,0,0-.795.285,1.039,1.039,0,0,0-.35.762Z" fill="#e50019" fill-rule="evenodd"/>
    <path id="Path_163" data-name="Path 163" d="M927.393,549.046h2.389v-.687h-1.636v-4.417h-.753v5.1Z" fill="#e50019" fill-rule="evenodd"/>
    <path id="Path_164" data-name="Path 164" d="M957.264,547.148c0,.982.51,1.964,1.505,1.964a1.688,1.688,0,0,0,.981-.229,3.823,3.823,0,0,0-.228-.59.911.911,0,0,1-1.284-.254c-.378-.6-.256-2.2.6-2.2a.961.961,0,0,1,.688.163c.037-.16.179-.376.228-.589-.108-.029-.051-.024-.155-.073a1.571,1.571,0,0,0-1.97.467,2.436,2.436,0,0,0-.361,1.34Z" fill="#e50019" fill-rule="evenodd"/>
    <path id="Path_165" data-name="Path 165" d="M938.092,544.04v5.006c.461,0,.785.07.785-.1V544.04c0-.161-.259-.1-.688-.1-.075,0-.1.023-.1.1Z" fill="#e50019" fill-rule="evenodd"/>
    <path id="Path_166" data-name="Path 166" d="M948.855,545.512v3.534h.72v-3.141a2.024,2.024,0,0,1,.949-.065c0-.259.1-.384.1-.655a4.335,4.335,0,0,0-1.252.09c-.142.028-.515.1-.515.237Z" fill="#e50019" fill-rule="evenodd"/>
    <path id="Path_167" data-name="Path 167" d="M930.108,549.046h.753v-3.8h-.753v3.8Z" fill="#e50019" fill-rule="evenodd"/>
    <path id="Path_168" data-name="Path 168" d="M930.926,544.171c0-.34-.188-.458-.491-.458-.606,0-.428,1.088.216.839a.459.459,0,0,0,.275-.381Z" fill="#e50019" fill-rule="evenodd"/>
  </g>
</svg>
